Patient4_TMGait_0pt2_02_right_20_GRF.mot
version=1
nRows=51
nColumns=19
inDegrees=no
endheader
time	F1x	F1y	F1z	M1x	M1y	M1z	F2x	F2y	F2z	M2x	M2y	M2z	EC1x	EC1y	EC1z	EC2x	EC2y	EC2z
44.26	-19.1929	822.849	51.3378	-271.6634	-65.3331	994.7456	-3.984	46.384	-4.7934	18.5958	5.1673	49.0936	-0.0592	0.0182	-0.0073	-0.0462	0.0165	0.9585
44.2819	-17.6411	838.6023	53.1862	-277.0216	-66.9215	1011.8117	-3.753	40.6721	-4.0351	16.0378	4.7605	43.3165	-0.0592	0.0182	-0.0073	-0.0462	0.0165	0.9585
44.3039	-15.7724	853.9197	55.1654	-282.2396	-68.3878	1027.514	-3.6922	33.8565	-3.1844	13.1311	4.234	36.2824	-0.0592	0.0182	-0.0073	-0.0462	0.0165	0.9585
44.3258	-13.5887	866.2257	57.0115	-286.4645	-69.4154	1038.8358	-3.6821	26.5903	-2.3287	10.1428	3.6167	28.6802	-0.0592	0.0182	-0.0073	-0.0462	0.0165	0.9585
44.3477	-11.125	873.2712	58.4868	-288.9513	-69.7583	1043.2617	-3.5562	19.5592	-1.5587	7.3294	2.9479	21.2585	-0.0592	0.0182	-0.0073	-0.0462	0.0165	0.9585
44.3696	-8.439	873.6198	59.4078	-289.224	-69.258	1039.2923	-3.2103	13.3344	-0.94398	4.8919	2.2793	14.646	-0.0592	0.0182	-0.0073	-0.0462	0.0165	0.9585
44.3916	-5.5809	866.8874	59.654	-287.1567	-67.8362	1026.6635	-2.7092	8.307	-0.50995	2.9591	1.682	9.2743	-0.0592	0.0182	-0.0073	-0.0462	0.0165	0.9585
44.4135	-2.5694	853.755	59.1711	-282.9835	-65.4848	1006.3229	-2.1969	4.5922	-0.23706	1.5585	1.2097	5.2796	-0.0592	0.0182	-0.0073	-0.0462	0.0165	0.9585
44.4354	0.6148	835.7685	57.9616	-277.2343	-62.2473	980.1764	-1.7579	2.0435	-0.091076	0.62167	0.87633	2.5117	-0.0592	0.0182	-0.0073	-0.0462	0.0165	0.9585
44.4574	4.0054	814.9558	56.0758	-270.6047	-58.2122	950.643	-1.4242	0.37667	-0.032524	0.031801	0.66444	0.66089	-0.0592	0.0182	-0.0073	-0.0462	0.0165	0.9585
44.4793	7.633	793.4455	53.609	-263.8218	-53.51	920.2118	-1.1906	-0.73444	-0.025267	-0.34014	0.53783	-0.62997	-0.0592	0.0182	-0.0073	-0.0462	0.0165	0.9585
44.5012	11.5043	773.1792	50.7076	-257.5417	-48.3217	891.142	-1.0321	-1.5956	-0.036565	-0.61313	0.45535	-1.6958	-0.0592	0.0182	-0.0073	-0.0462	0.0165	0.9585
44.5231	15.5758	755.7053	47.579	-252.2721	-42.8999	865.253	-0.91211	-2.452	-0.040318	-0.88212	0.37755	-2.8055	-0.0592	0.0182	-0.0073	-0.0462	0.0165	0.9585
44.5451	19.7501	742.0635	44.494	-248.3326	-37.5735	843.7998	-0.78965	-3.4542	-0.019625	-1.2068	0.27291	-4.1187	-0.0592	0.0182	-0.0073	-0.0462	0.0165	0.9585
44.567	23.8937	732.7413	41.7597	-245.8417	-32.7139	827.4218	-0.62897	-4.6305	0.036601	-1.6025	0.11768	-5.6509	-0.0592	0.0182	-0.0073	-0.0462	0.0165	0.9585
44.5889	27.8551	727.6611	39.673	-244.7192	-28.6812	816.1291	-0.40325	-5.8461	0.13326	-2.0268	-0.10149	-7.2225	-0.0592	0.0182	-0.0073	-0.0462	0.0165	0.9585
44.6109	31.4712	726.2358	38.4565	-244.7154	-25.7569	809.3567	-0.096536	-6.764	0.26161	-2.3654	-0.37644	-8.3937	-0.0592	0.0182	-0.0073	-0.0462	0.0165	0.9585
44.6328	34.5936	727.4694	38.2139	-245.4568	-24.0869	806.0708	0.28996	-6.7987	0.39611	-2.4162	-0.67033	-8.4112	-0.0592	0.0182	-0.0073	-0.0462	0.0165	0.9585
44.6547	37.1303	730.0498	38.9236	-246.4835	-23.6673	804.8695	0.72594	-5.0836	0.49286	-1.8791	-0.91212	-6.1812	-0.0592	0.0182	-0.0073	-0.0462	0.0165	0.9585
44.6766	39.0513	732.4171	40.449	-247.2663	-24.3598	804.0575	1.1398	-0.47607	0.48253	-0.35509	-0.98037	-0.27311	-0.0592	0.0182	-0.0073	-0.0462	0.0165	0.9585
44.6986	40.3483	732.8516	42.5618	-247.2333	-25.9292	801.7522	1.4033	8.3723	0.26619	2.6308	-0.69466	10.9985	-0.0592	0.0182	-0.0073	-0.0462	0.0165	0.9585
44.7205	41.0121	729.6061	44.9732	-245.8135	-28.0833	796.0363	1.3165	22.8344	-0.28099	7.5692	0.18245	29.3421	-0.0592	0.0182	-0.0073	-0.0462	0.0165	0.9585
44.7424	41.0197	721.0425	47.3466	-242.4824	-30.4863	785.1135	0.59636	43.9765	-1.3027	14.8552	1.9366	56.0624	-0.0592	0.0182	-0.0073	-0.0462	0.0165	0.9585
44.7644	40.3384	705.836	49.3114	-236.828	-32.7721	767.5338	-1.1198	72.1627	-2.9278	24.6489	4.8522	91.5647	-0.0592	0.0182	-0.0073	-0.0462	0.0165	0.9585
44.7863	38.9287	683.206	50.5218	-228.6254	-34.6049	742.4444	-4.0909	106.7924	-5.3558	36.7614	9.2591	135.0479	-0.0592	0.0182	-0.0073	-0.0462	0.0165	0.9585
44.8082	36.7639	653.058	50.7338	-217.8808	-35.7505	709.7241	-8.1093	145.9839	-8.7931	50.5355	15.3101	184.1133	-0.0592	0.0182	-0.0073	-0.0462	0.0165	0.9585
44.8301	33.908	616.297	49.8599	-204.9342	-36.1007	670.2831	-12.5522	186.9457	-13.0734	64.995	22.5426	235.2271	-0.0592	0.0182	-0.0073	-0.0462	0.0165	0.9585
44.8521	30.5675	575.0036	47.9914	-190.5189	-35.6735	626.2371	-16.8414	227.0806	-17.6125	79.2454	30.01	285.1366	-0.0592	0.0182	-0.0073	-0.0462	0.0165	0.9585
44.874	27.0769	532.0819	45.3636	-175.6409	-34.58	580.5417	-20.6063	264.8553	-21.76	92.7603	36.7733	331.9561	-0.0592	0.0182	-0.0073	-0.0462	0.0165	0.9585
44.8959	23.8054	490.4161	42.2968	-161.288	-32.9987	536.1237	-23.6665	299.6154	-25.1408	105.2967	42.2978	374.9009	-0.0592	0.0182	-0.0073	-0.0462	0.0165	0.9585
44.9179	21.0372	452.0674	39.1149	-148.1528	-31.1376	495.067	-25.967	331.0971	-27.6922	116.721	46.4726	413.6637	-0.0592	0.0182	-0.0073	-0.0462	0.0165	0.9585
44.9398	18.931	417.9665	36.0877	-136.5317	-29.1938	458.3081	-27.5547	359.2787	-29.5301	126.973	49.4475	448.2222	-0.0592	0.0182	-0.0073	-0.0462	0.0165	0.9585
44.9617	17.5333	388.0561	33.3868	-126.3831	-27.3108	425.7827	-28.5427	384.4428	-30.8158	136.1076	51.4622	478.895	-0.0592	0.0182	-0.0073	-0.0462	0.0165	0.9585
44.9836	16.8081	361.6448	31.0706	-117.4588	-25.5514	396.7925	-29.0314	407.2132	-31.7048	144.3199	52.7454	506.3764	-0.0592	0.0182	-0.0073	-0.0462	0.0165	0.9585
45.0056	16.6643	337.7748	29.09	-109.433	-23.891	370.3801	-29.0416	428.4453	-32.3318	151.9093	53.4739	531.6154	-0.0592	0.0182	-0.0073	-0.0462	0.0165	0.9585
45.0275	16.9613	315.465	27.3155	-101.9801	-22.2424	345.5727	-28.5259	449.0363	-32.7949	159.2071	53.7546	555.6041	-0.0592	0.0182	-0.0073	-0.0462	0.0165	0.9585
45.0494	17.5015	293.7916	25.5858	-94.7967	-20.5087	321.4557	-27.4236	469.7117	-33.1747	166.4918	53.6723	579.1509	-0.0592	0.0182	-0.0073	-0.0462	0.0165	0.9585
45.0714	18.0449	271.9025	23.7621	-87.6027	-18.6291	297.1762	-25.7066	490.9332	-33.5578	173.9472	53.3306	602.792	-0.0592	0.0182	-0.0073	-0.0462	0.0165	0.9585
45.0933	18.3508	249.0503	21.766	-80.147	-16.6031	271.9657	-23.3991	513.0151	-34.042	181.6965	52.8634	626.9341	-0.0592	0.0182	-0.0073	-0.0462	0.0165	0.9585
45.1152	18.2199	224.6437	19.5934	-72.2256	-14.4939	245.1967	-20.6032	536.2209	-34.737	189.8335	52.4425	651.971	-0.0592	0.0182	-0.0073	-0.0462	0.0165	0.9585
45.1371	17.5017	198.3521	17.2871	-63.7173	-12.3987	216.5016	-17.5125	560.7316	-35.7549	198.4151	52.2729	678.2355	-0.0592	0.0182	-0.0073	-0.0462	0.0165	0.9585
45.1591	16.1104	170.2651	14.8994	-54.6406	-10.4062	185.9489	-14.3817	586.5527	-37.1803	207.4357	52.5477	705.8703	-0.0592	0.0182	-0.0073	-0.0462	0.0165	0.9585
45.181	14.0717	141.0613	12.4876	-45.2114	-8.5759	154.2283	-11.4846	613.4506	-39.0178	216.814	53.3761	734.7386	-0.0592	0.0182	-0.0073	-0.0462	0.0165	0.9585
45.2029	11.5505	111.9866	10.1297	-35.8338	-6.9428	122.6361	-9.1016	640.8721	-41.1556	226.3692	54.7387	764.3206	-0.0592	0.0182	-0.0073	-0.0462	0.0165	0.9585
45.2249	8.8095	84.524	7.918	-26.9904	-5.5235	92.7396	-7.4931	667.9961	-43.3845	235.8397	56.4962	793.7598	-0.0592	0.0182	-0.0073	-0.0462	0.0165	0.9585
45.2468	6.1193	59.9811	5.9217	-19.1077	-4.3062	65.9487	-6.8452	694.0667	-45.4525	244.9934	58.4318	822.2392	-0.0592	0.0182	-0.0073	-0.0462	0.0165	0.9585
45.2687	3.7165	39.2663	4.1891	-12.4796	-3.2652	43.2703	-7.2365	718.855	-47.1395	253.7812	60.316	849.4954	-0.0592	0.0182	-0.0073	-0.0462	0.0165	0.9585
45.2906	1.7866	22.8387	2.7525	-7.2475	-2.3748	25.2349	-8.6195	742.8558	-48.3019	262.3972	61.9547	876.0327	-0.0592	0.0182	-0.0073	-0.0462	0.0165	0.9585
45.3126	0.43035	10.7345	1.6252	-3.4114	-1.6192	11.9118	-10.8052	767.0239	-48.8912	271.1808	63.2121	902.817	-0.0592	0.0182	-0.0073	-0.0462	0.0165	0.9585
45.3345	-0.39547	2.604	0.80604	-0.84739	-1.0153	2.9383	-13.4486	792.1245	-48.9579	280.385	64.007	930.5402	-0.0592	0.0182	-0.0073	-0.0462	0.0165	0.9585
45.3564	-0.82143	-2.2354	0.26395	0.67069	-0.57451	-2.4243	-16.0823	817.9638	-48.6249	289.9035	64.2975	958.7795	-0.0592	0.0182	-0.0073	-0.0462	0.0165	0.9585
